<?xml version="1.0" encoding="utf-8"?>
<!-- Generator: Adobe Illustrator 16.0.0, SVG Export Plug-In . SVG Version: 6.00 Build 0)  -->
<!DOCTYPE svg PUBLIC "-//W3C//DTD SVG 1.1//EN" "http://www.w3.org/Graphics/SVG/1.1/DTD/svg11.dtd">
<svg version="1.1" id="Layer_1" xmlns="http://www.w3.org/2000/svg" xmlns:xlink="http://www.w3.org/1999/xlink" x="0px" y="0px"
	 width="24px" height="24px" viewBox="0 0 24 24" enable-background="new 0 0 24 24" xml:space="preserve">
<g>
	<path fill="#FFFFFF" d="M8.58,13.392c1.213,0,2.311-0.492,3.106-1.288c0.794-0.793,1.286-1.892,1.286-3.105
		c0-1.212-0.492-2.311-1.286-3.105C10.891,5.098,9.793,4.606,8.58,4.606c-1.214,0-2.312,0.492-3.107,1.287
		C4.679,6.688,4.187,7.786,4.187,8.998c0,1.214,0.492,2.312,1.286,3.105C6.269,12.899,7.366,13.392,8.58,13.392z"/>
	<path fill="#FFFFFF" d="M8.58,19.541c3.09,0,5.271-0.879,5.271-1.757c0-1.758-2.068-3.515-5.271-3.515
		c-3.295,0-5.271,1.757-5.271,3.515C3.309,18.662,5.285,19.541,8.58,19.541z"/>
	<path fill="#FFFFFF" d="M19.121,11.634h-1.756V9.877c0-0.484-0.394-0.879-0.878-0.879c-0.486,0-0.879,0.395-0.879,0.879v1.757
		h-1.757c-0.486,0-0.879,0.393-0.879,0.879c0,0.485,0.393,0.879,0.879,0.879h1.757v1.757c0,0.485,0.393,0.878,0.879,0.878
		c0.484,0,0.878-0.393,0.878-0.878v-1.757h1.756c0.486,0,0.879-0.394,0.879-0.879C20,12.026,19.607,11.634,19.121,11.634z"/>
</g>
</svg>
