<?xml version="1.0" encoding="utf-8"?>
<!-- Generator: Adobe Illustrator 16.0.0, SVG Export Plug-In . SVG Version: 6.00 Build 0)  -->
<!DOCTYPE svg PUBLIC "-//W3C//DTD SVG 1.1//EN" "http://www.w3.org/Graphics/SVG/1.1/DTD/svg11.dtd">
<svg version="1.1" id="Layer_1" xmlns="http://www.w3.org/2000/svg" xmlns:xlink="http://www.w3.org/1999/xlink" x="0px" y="0px"
	 width="24px" height="24px" viewBox="0 0 24 24" enable-background="new 0 0 24 24" xml:space="preserve">
<g>
	<g>
		<path d="M12,3.751c-4.554,0-8.247,3.693-8.247,8.249c0,4.555,3.693,8.249,8.247,8.249c4.555,0,8.246-3.694,8.246-8.249
			C20.246,7.444,16.555,3.751,12,3.751z M15.033,15.237l-0.24,0.24c-0.2,0.199-0.538,0.21-0.748,0.021l-3.107-2.719
			c-0.212-0.189-0.372-0.577-0.358-0.86l0.288-4.904c0.015-0.284,0.259-0.515,0.542-0.515h0.339c0.284,0,0.527,0.231,0.541,0.514
			l0.235,4.079c0.015,0.283,0.181,0.687,0.368,0.9l2.16,2.493C15.242,14.701,15.233,15.037,15.033,15.237z"/>
	</g>
</g>
</svg>
