<?xml version="1.0" encoding="utf-8"?>
<!-- Generator: Adobe Illustrator 16.0.0, SVG Export Plug-In . SVG Version: 6.00 Build 0)  -->
<!DOCTYPE svg PUBLIC "-//W3C//DTD SVG 1.1//EN" "http://www.w3.org/Graphics/SVG/1.1/DTD/svg11.dtd">
<svg version="1.1" id="Livello_1" xmlns="http://www.w3.org/2000/svg" xmlns:xlink="http://www.w3.org/1999/xlink" x="0px" y="0px"
	 width="161.346px" height="23.415px" viewBox="0 0 161.346 23.415" enable-background="new 0 0 161.346 23.415"
	 xml:space="preserve">
<path fill="#FFFFFF" d="M10.322,0.521H0v0.796c0,0,2.166,0.062,2.166,2.15v19.547h4.152v-8.956h1.322c4.684,0,10.347,0,10.347-6.842
	C17.987,2.947,14.966,0.521,10.322,0.521z M8.283,12.358H6.318V4.395c0-1.483,0.114-2.173,2.152-2.173
	c3.361,0,5.362,0.798,5.362,4.853C13.833,11.417,11.266,12.358,8.283,12.358z"/>
<path fill="#FFFFFF" d="M59.166,14.566h11.513c0-3.902-1.793-8.78-7.521-8.78c-4.186,0-7.95,2.421-7.95,8.47
	c0,6.945,5.338,9.159,8.874,9.159c3.036,0,4.514-0.838,5.512-1.563V19.83c-0.613,0.614-2.558,1.629-4.504,1.629
	C61.311,21.459,59.166,19.273,59.166,14.566z M62.942,7.018c2.993,0,3.659,3.162,3.824,5.634h-7.519
	C59.368,8.838,61.152,7.018,62.942,7.018z"/>
<path fill="#FFFFFF" d="M128.144,21.32c-0.681,0.76-1.964,2.094-4.871,2.094c-2.944,0-5.061-2.027-5.061-4.163
	c0-5.103,7.516-6.902,9.932-6.974v-1.847c0-2.28-0.874-3.413-2.67-3.413c-2.37,0-2.838,2.099-2.838,3.691h-4.007
	c0.415-2.389,1.66-4.923,7.099-4.923c4.691,0,6.193,2.049,6.193,6.225v11.004h-3.777 M128.144,13.581
	c-1.36,0.036-5.774,1.616-5.774,5.055c0,1.664,0.866,2.822,2.263,2.822c1.895,0,3.512-1.289,3.512-3.133V13.581z"/>
<path fill="#FFFFFF" d="M46.748,12.736l6.721-6.553H50.6l-7.363,7.275V0.521h-5.942v0.796c0,0,2.168,0.062,2.168,2.15v19.547h3.774
	V13.93h0.075l6.91,9.085h4.796L46.748,12.736z"/>
<path fill="#FFFFFF" d="M83.086,5.786c-2.535,0-4.19,1.828-4.721,3.378h-0.073V6.015l-5.943-0.002v0.798
	c0,0,2.165,0.062,2.165,2.149v14.055h3.778v-8.65c0-2.533,1.095-5.663,4.907-5.663c0.641,0,1.321,0.159,1.925,0.34V5.967
	C84.482,5.858,83.766,5.786,83.086,5.786"/>
<path fill="#FFFFFF" d="M145.559,5.786c-2.533,0-4.19,1.828-4.72,3.378h-0.075V6.015l-5.941-0.002v0.798
	c0,0,2.164,0.062,2.164,2.149v14.055h3.777v-8.65c0-2.533,1.094-5.663,4.908-5.663c0.641,0,1.323,0.159,1.928,0.34V5.967
	C146.956,5.858,146.238,5.786,145.559,5.786"/>
<path fill="#FFFFFF" d="M115.817,7.631V6.184h-4.947V0.055l-3.777,1.867v4.262h-2.917v1.447h2.917v11.113
	c0,4.128,2.115,4.67,5.74,4.67c1.444,0,2.528-0.356,2.528-0.356v-1.724c0,0-0.419,0.155-1.741,0.155c-2.7,0-2.75-0.791-2.75-3.324
	V7.631H115.817z"/>
<path fill="#FFFFFF" d="M91.481,5.243c0.049-2.178,2.29-3.321,4.476-3.278c2.901,0.055,4.822,1.823,4.822,1.823V0.853
	c-0.349-0.127-2.323-0.797-5.114-0.851c-3.079-0.058-7.805,1.248-7.898,5.68c-0.151,7.287,11.3,6.784,11.195,11.838
	c-0.061,2.823-2.616,3.965-5.286,3.913c-2.941-0.057-5.943-2.271-6.363-2.682v3.06c0.452,0.208,3.489,1.522,6.646,1.583
	c3.857,0.073,8.606-1.501,8.715-6.631C102.828,9.392,91.394,9.534,91.481,5.243"/>
<path fill="#FFFFFF" d="M153.209,9.374c0.033-1.646,1.254-2.055,2.904-2.022c2.193,0.042,3.803,1.228,3.803,1.228V6.362
	c-0.266-0.096-1.76-0.604-3.866-0.644c-2.329-0.045-6.179,0.942-6.249,4.292c-0.114,5.507,8.184,5.324,8.104,9.144
	c-0.044,2.134-1.609,2.486-3.455,2.486c-2.222,0-4.395-1.677-4.713-1.987v2.546c0.345,0.156,2.639,1.15,5.023,1.195
	c2.917,0.057,6.503-1.133,6.585-5.009C161.461,12.813,153.141,12.616,153.209,9.374"/>
<g>
	<path fill="#FFFFFF" d="M32.988,5.107c-2.94-2.911-4.817-4.719-4.817-4.719s-1.876,1.808-4.816,4.719
		c-1.55,1.536-5.039,5.349-5.039,9.14c0,2.524,2.069,4.575,4.617,4.575c1.674,0,3.001-0.888,3.811-2.206l0.066-0.081
		c0.081-0.099,0.298-0.146,0.449-0.146c0.238,0,0.582,0.186,0.543,0.556c-0.207,1.359-0.521,4.756-3.573,5.892h7.887
		c-3.054-1.136-3.39-4.526-3.548-5.892c-0.038-0.345,0.252-0.542,0.49-0.542c0.15,0,0.355,0.072,0.438,0.172l0.079,0.08
		c0.81,1.319,2.161,2.167,3.837,2.167c2.548,0,4.614-2.051,4.614-4.575C38.025,10.456,34.538,6.644,32.988,5.107z M30.041,11.347
		c0,0,0.854,2.625,1.095,3.362c-0.63-0.456-2.862-2.078-2.862-2.078c-0.059-0.042-0.138-0.042-0.195,0c0,0-2.233,1.621-2.862,2.078
		c0.24-0.737,1.093-3.362,1.093-3.362c0.006-0.017,0.008-0.034,0.008-0.051c0-0.051-0.024-0.102-0.067-0.133
		c0,0-2.234-1.622-2.864-2.079h3.542c0.072,0,0.135-0.047,0.156-0.114c0,0,0.852-2.623,1.092-3.364
		c0.241,0.741,1.094,3.364,1.094,3.364c0.023,0.067,0.086,0.114,0.159,0.114h3.539c-0.629,0.457-2.865,2.079-2.865,2.079
		c-0.042,0.031-0.067,0.082-0.067,0.133C30.034,11.313,30.036,11.33,30.041,11.347z"/>
</g>
</svg>
