<?xml version="1.0" encoding="utf-8"?>
<!-- Generator: Adobe Illustrator 16.0.0, SVG Export Plug-In . SVG Version: 6.00 Build 0)  -->
<!DOCTYPE svg PUBLIC "-//W3C//DTD SVG 1.1//EN" "http://www.w3.org/Graphics/SVG/1.1/DTD/svg11.dtd">
<svg version="1.1" id="Layer_1" xmlns="http://www.w3.org/2000/svg" xmlns:xlink="http://www.w3.org/1999/xlink" x="0px" y="0px"
	 width="24px" height="24px" viewBox="0 0 24 24" enable-background="new 0 0 24 24" xml:space="preserve">
<path d="M18.217,12.806c0-0.247,0.083-0.576,0.083-0.821c0-0.247,0-0.575-0.083-0.822l1.726-1.233
	c0.164-0.082,0.247-0.328,0.082-0.575L18.381,6.48c-0.081-0.246-0.328-0.329-0.492-0.246l-1.972,0.903
	c-0.411-0.329-0.986-0.657-1.479-0.822l-0.247-2.136c0-0.247-0.164-0.411-0.41-0.411h-3.287c-0.246,0-0.411,0.164-0.411,0.411
	L9.837,6.234C9.262,6.48,8.769,6.726,8.358,7.055L6.387,6.234c-0.164-0.083-0.411,0-0.493,0.164L4.25,9.273
	C4.086,9.52,4.086,9.766,4.333,9.848l1.725,1.314c0,0.247-0.082,0.575-0.082,0.822c0,0.246,0,0.574,0.082,0.821l-1.725,1.231
	c-0.164,0.083-0.246,0.329-0.082,0.575l1.643,2.876c0.082,0.246,0.329,0.328,0.493,0.246l1.972-0.904
	c0.411,0.33,0.986,0.658,1.479,0.822l0.247,2.136c0,0.247,0.165,0.411,0.411,0.411h3.287c0.246,0,0.41-0.164,0.41-0.411l0.247-2.136
	c0.575-0.246,1.067-0.492,1.479-0.822l1.972,0.904c0.164,0.082,0.411,0,0.492-0.164l1.644-2.875
	c0.082-0.164,0.082-0.411-0.082-0.575L18.217,12.806z M12.138,15.271c-1.808,0-3.287-1.479-3.287-3.286
	c0-1.808,1.479-3.286,3.287-3.286s3.286,1.479,3.286,3.286C15.424,13.791,13.945,15.271,12.138,15.271z"/>
</svg>
