<?xml version="1.0" encoding="utf-8"?>
<!-- Generator: Adobe Illustrator 16.0.0, SVG Export Plug-In . SVG Version: 6.00 Build 0)  -->
<!DOCTYPE svg PUBLIC "-//W3C//DTD SVG 1.1//EN" "http://www.w3.org/Graphics/SVG/1.1/DTD/svg11.dtd">
<svg version="1.1" id="Layer_1" xmlns="http://www.w3.org/2000/svg" xmlns:xlink="http://www.w3.org/1999/xlink" x="0px" y="0px"
	 width="171.422px" height="89.509px" viewBox="0 0 171.422 89.509" enable-background="new 0 0 171.422 89.509"
	 xml:space="preserve">
<g>
	<g>
		<path fill="#FFFFFF" d="M135.715,5.728l14.197-2.541v54.518h-14.197V5.728z M156.452,5.728v51.977h14.212V3.187L156.452,5.728z
			 M115.487,57.705h14.209V17.83h-14.209V57.705z M21.6,23.468c-1.796-0.117-5.954-0.386-5.954-4.129
			c0-4.516,5.985-4.516,8.23-4.516c3.947,0,9.059,1.165,12.71,2.258c0,0,2.037,0.718,3.77,1.453l0.161,0.044v-0.164V6.209
			l-0.221-0.065c-4.309-1.507-9.319-2.957-18.607-2.957C5.674,3.187,0,12.516,0,20.508c0,4.607,1.975,15.451,20.316,16.702
			c1.555,0.095,5.681,0.333,5.681,4.2c0,3.193-3.378,5.076-9.06,5.076c-6.226,0-12.268-1.588-15.936-3.094v12.738
			c5.493,1.439,11.683,2.159,18.94,2.159c15.659,0,22.672-8.827,22.672-17.575C42.614,30.796,34.765,24.35,21.6,23.468z
			 M107.479,17.246c-13.13,0.422-19.797,6.313-19.797,18.023v22.436h14.327V39.409c0-7.012,0.918-10.019,9.238-10.305V17.452
			C109.847,17.154,107.479,17.246,107.479,17.246z M68.939,17.784c-0.316,0.795-2.59,7.221-8.093,13.881V3.187l-14.66,2.897v51.62
			h14.66V41.749c4.247,6.367,6.343,15.956,6.343,15.956h17.56c-1.737-7.222-9.335-20.536-9.335-20.536
			c6.819-8.646,9.814-17.857,10.291-19.385H68.939z M122.587,14.004c3.87,0,7.005-3.134,7.005-7c0-3.867-3.135-7.004-7.005-7.004
			c-3.863,0-6.998,3.138-6.998,7.004C115.589,10.871,118.724,14.004,122.587,14.004z"/>
		<g>
			<path fill="#FFFFFF" d="M16.258,84.52v-8.419c0-0.96-0.356-1.616-1.316-1.616c-0.741,0-1.454,0.463-2.194,1.177v8.858H8.607
				v-8.419c0-0.96-0.356-1.616-1.316-1.616c-0.767,0-1.452,0.463-2.193,1.177v8.858H0.957V71.083h3.648l0.301,1.837
				c1.207-1.233,2.441-2.111,4.169-2.111c1.836,0,2.851,0.905,3.344,2.111c1.208-1.206,2.524-2.111,4.196-2.111
				c2.495,0,3.812,1.564,3.812,4.168v9.544H16.258z"/>
			<path fill="#FFFFFF" d="M28.95,84.792c-3.702,0-6.417-2.659-6.417-6.964s2.742-7.021,6.443-7.021
				c3.729,0,6.473,2.688,6.473,6.992S32.678,84.792,28.95,84.792z M28.977,74.208c-1.59,0-2.439,1.397-2.439,3.592
				c0,2.167,0.876,3.647,2.439,3.647c1.591,0,2.469-1.454,2.469-3.619C31.446,75.662,30.567,74.208,28.977,74.208z"/>
			<path fill="#FFFFFF" d="M45.427,84.52v-8.419c0-0.96-0.385-1.616-1.371-1.616c-0.796,0-1.537,0.463-2.276,1.203v8.832h-4.142
				V71.083h3.647l0.302,1.837c1.208-1.178,2.496-2.111,4.196-2.111c2.495,0,3.812,1.564,3.812,4.168v9.544H45.427z"/>
			<path fill="#FFFFFF" d="M63.906,78.841h-8.062c0.219,2.112,1.48,2.935,3.291,2.935c1.48,0,2.934-0.548,4.415-1.396l0.411,2.906
				c-1.452,0.931-3.235,1.507-5.347,1.507c-4.03,0-6.911-2.138-6.911-6.937c0-4.387,2.688-7.048,6.333-7.048
				c4.115,0,5.951,3.072,5.951,6.965C63.988,78.184,63.961,78.624,63.906,78.841z M57.929,73.496c-1.152,0-1.975,1.015-2.112,3.071
				h4.223C59.902,74.538,59.189,73.496,57.929,73.496z"/>
			<path fill="#FFFFFF" d="M73.44,84.792c-1.207,3.511-2.853,4.717-5.785,4.717c-0.824,0-1.179-0.082-1.563-0.163l-0.521-3.319
				c0.439,0.137,0.85,0.22,1.646,0.22c0.932,0,1.756-0.355,2.193-1.29l0.165-0.409l-4.881-13.136l4.441-0.523l2.607,8.476
				l2.467-8.281h4.004L73.44,84.792z"/>
			<path fill="#FFFFFF" d="M85.614,84.682c-2.167,0-4.197-0.354-5.76-0.958V65.377l4.14-0.657v7.842
				c0.851-0.876,2.003-1.754,3.594-1.754c2.74,0,4.825,2.084,4.825,6.635C92.413,82.436,89.753,84.682,85.614,84.682z M86.271,74.51
				c-0.876,0-1.591,0.519-2.277,1.29v5.318c0.549,0.166,0.878,0.248,1.508,0.248c1.618,0,2.771-0.987,2.771-3.648
				C88.272,75.468,87.451,74.51,86.271,74.51z"/>
			<path fill="#FFFFFF" d="M100.444,84.792c-3.701,0-6.416-2.659-6.416-6.964s2.743-7.021,6.444-7.021
				c3.729,0,6.472,2.688,6.472,6.992S104.174,84.792,100.444,84.792z M100.472,74.208c-1.59,0-2.44,1.397-2.44,3.592
				c0,2.167,0.876,3.647,2.44,3.647c1.59,0,2.469-1.454,2.469-3.619C102.941,75.662,102.062,74.208,100.472,74.208z"/>
			<path fill="#FFFFFF" d="M114.893,84.792c-3.7,0-6.417-2.659-6.417-6.964s2.742-7.021,6.446-7.021
				c3.727,0,6.469,2.688,6.469,6.992S118.622,84.792,114.893,84.792z M114.922,74.208c-1.592,0-2.441,1.397-2.441,3.592
				c0,2.167,0.878,3.647,2.441,3.647c1.589,0,2.466-1.454,2.466-3.619C117.388,75.662,116.511,74.208,114.922,74.208z"/>
			<path fill="#FFFFFF" d="M131.617,84.711l-3.894-6.443v6.252h-4.14V65.377l4.14-0.657v11.874l3.591-5.512h4.442l-4.223,6.115
				l4.39,6.91L131.617,84.711z"/>
			<path fill="#FFFFFF" d="M148.424,78.841h-8.063c0.221,2.112,1.482,2.935,3.289,2.935c1.483,0,2.936-0.548,4.418-1.396
				l0.408,2.906c-1.451,0.931-3.234,1.507-5.344,1.507c-4.032,0-6.911-2.138-6.911-6.937c0-4.387,2.688-7.048,6.333-7.048
				c4.116,0,5.952,3.072,5.952,6.965C148.506,78.184,148.476,78.624,148.424,78.841z M142.446,73.496
				c-1.152,0-1.974,1.015-2.112,3.071h4.223C144.418,74.538,143.707,73.496,142.446,73.496z"/>
			<path fill="#FFFFFF" d="M154.864,77.062v7.458h-4.141V71.083h3.62l0.439,2.658c0.821-1.533,1.945-2.795,3.92-2.933l0.688,4.221
				C157.387,75.168,155.879,75.964,154.864,77.062z"/>
			<path fill="#FFFFFF" d="M165.909,84.739c-2.139,0-4.138-0.603-5.539-1.345l0.494-3.153c1.593,0.987,3.538,1.591,5.075,1.591
				c1.152,0,1.698-0.384,1.698-1.016c0-0.685-0.383-0.984-2.276-1.452c-3.371-0.877-4.799-1.782-4.799-4.306
				c0-2.496,1.866-4.17,5.154-4.17c1.812,0,3.566,0.359,4.963,0.989l-0.518,3.151c-1.455-0.794-3.128-1.259-4.417-1.259
				c-0.987,0-1.426,0.356-1.426,0.878c0,0.55,0.383,0.849,2.278,1.37c3.564,0.96,4.825,1.865,4.825,4.361
				C171.422,83.201,169.474,84.739,165.909,84.739z"/>
		</g>
	</g>
</g>
</svg>
