<?xml version="1.0" encoding="utf-8"?>
<!-- Generator: Adobe Illustrator 16.0.0, SVG Export Plug-In . SVG Version: 6.00 Build 0)  -->
<!DOCTYPE svg PUBLIC "-//W3C//DTD SVG 1.1//EN" "http://www.w3.org/Graphics/SVG/1.1/DTD/svg11.dtd">
<svg version="1.1" id="Layer_1" xmlns="http://www.w3.org/2000/svg" xmlns:xlink="http://www.w3.org/1999/xlink" x="0px" y="0px"
	 width="50px" height="50px" viewBox="0 0 50 50" enable-background="new 0 0 50 50" xml:space="preserve">
<g>
	<path fill="#040606" d="M32.175,14.411l-5.177-0.805l-0.211-0.033l-5.181-0.806c-0.973-0.151-2.099,0.674-2.25,1.661l-0.082,0.521
		h4.497h0.213h5.242c0.984,0,1.969,0.988,1.969,1.987v16.6l2.622-16.858C33.971,15.69,33.15,14.562,32.175,14.411z"/>
	<path fill="#040606" d="M29.119,15.054h-5.242h-0.213h-4.496h-0.746c-0.986,0-1.971,0.989-1.971,1.987v18.083
		c0,0.999,0.985,1.649,1.971,1.649h5.242h0.213h5.242c0.984,0,1.97-0.65,1.97-1.649v-1.483v-16.6
		C31.089,16.043,30.104,15.054,29.119,15.054z M19.903,25.687c0.443-0.763,1.425-1.445,2.124-2.157
		c0.613-0.623,1.073-1.232,1.396-1.932c0.111-0.241,0.229-0.375,0.341-0.396c0.002,0,0.005-0.002,0.007-0.001
		c0.003,0,0.006,0.001,0.008,0.001c0.112,0.02,0.23,0.154,0.342,0.396c0.321,0.7,0.782,1.31,1.394,1.932
		c0.701,0.711,1.682,1.394,2.125,2.157c0.237,0.409,0.347,0.891,0.328,1.36c-0.04,1.031-0.698,1.998-1.963,1.956
		c-0.589-0.02-0.987-0.301-1.343-0.618c-0.335-0.302-0.62-0.223-0.617,0.141c0.002,0.053,0.007,0.112,0.02,0.177
		c0.273,1.306,1.065,2.086,2.106,2.472c0.168,0.063,0.396,0.105,0.612,0.144c0.342,0.06,0.224,0.261,0.102,0.261h-3.006h-0.213
		h-3.006c-0.123,0-0.24-0.201,0.1-0.261c0.219-0.038,0.446-0.081,0.615-0.144c1.042-0.386,1.831-1.166,2.104-2.472
		c0.014-0.064,0.021-0.124,0.021-0.177c0.002-0.363-0.283-0.442-0.618-0.141c-0.354,0.317-0.753,0.599-1.342,0.618
		c-1.264,0.042-1.922-0.925-1.962-1.956C19.556,26.577,19.665,26.096,19.903,25.687z"/>
</g>
</svg>
