<?xml version="1.0" encoding="utf-8"?>
<!-- Generator: Adobe Illustrator 16.0.0, SVG Export Plug-In . SVG Version: 6.00 Build 0)  -->
<!DOCTYPE svg PUBLIC "-//W3C//DTD SVG 1.1//EN" "http://www.w3.org/Graphics/SVG/1.1/DTD/svg11.dtd">
<svg version="1.1" id="Layer_1" xmlns="http://www.w3.org/2000/svg" xmlns:xlink="http://www.w3.org/1999/xlink" x="0px" y="0px"
	 width="24px" height="24px" viewBox="0 0 24 24" enable-background="new 0 0 24 24" xml:space="preserve">
<polygon fill="#7A7A7A" points="19.254,5.129 8.715,3.792 8.405,3.752 8.382,3.933 8.189,5.445 16.723,5.445 17.035,5.445 
	17.035,5.627 17.035,19.363 17.441,19.414 17.75,19.453 17.773,19.275 19.539,5.35 19.563,5.169 "/>
<polygon points="16.326,5.848 6.073,5.848 5.772,5.848 5.772,6.029 5.772,20.063 5.772,20.248 6.073,20.248 16.326,20.248 
	16.631,20.248 16.631,20.063 16.631,6.029 16.631,5.848 "/>
<path fill="#FFFFFF" d="M13.063,11.946C11.855,10.733,11.21,9.66,11.21,9.66s-0.659,1.181-1.846,2.294
	c-0.881,0.823-1.648,1.3-1.646,2.364c0.002,1.09,0.831,1.969,1.852,1.969c0.641-0.004,1.202-0.352,1.533-0.879
	c-0.071,0.385-0.171,0.883-0.261,1.162c-0.288,0.889-0.767,1.113-0.767,1.113l2.147-0.004c0,0-0.47-0.268-0.688-1.119
	c-0.054-0.215-0.161-0.756-0.24-1.166c0.331,0.533,0.898,0.885,1.543,0.885c1.021-0.002,1.848-0.887,1.846-1.977
	C14.682,13.252,13.951,12.84,13.063,11.946z"/>
</svg>
